<?xml version="1.0" encoding="UTF-8"?>
<!-- Generated by Pixelmator Pro 3.7.1 -->
<svg width="1024" height="1024" viewBox="0 0 1024 1024" xmlns="http://www.w3.org/2000/svg">
    <path id="Inner-Segment" fill="#ac73e5" fill-rule="evenodd" stroke="#ffffff" stroke-width="16" stroke-linecap="round" stroke-linejoin="round" d="M 512 352 L 368 432 L 368 592 L 512 672 L 656 592 L 656 432 Z"/>
    <path id="Top-Left-Segment" fill="#cc99ff" fill-rule="evenodd" stroke="#ffffff" stroke-width="16" stroke-linecap="round" stroke-linejoin="round" d="M 360 128 L 216 208 L 152 160 L 360 48 Z"/>
    <path id="Top-Right-Segment" fill="#bc85f2" fill-rule="evenodd" stroke="#ffffff" stroke-width="16" stroke-linecap="round" stroke-linejoin="round" d="M 664 128 L 808 208 L 872 160 L 664 48 Z"/>
    <path id="Right-Segment" fill="#9d62d9" fill-rule="evenodd" stroke="#ffffff" stroke-width="16" stroke-linecap="round" stroke-linejoin="round" d="M 864 592 L 928 640 L 928 384 L 864 432 Z"/>
    <path id="Bottom-Left-Segment" fill="#8f52cc" fill-rule="evenodd" stroke="#ffffff" stroke-width="16" stroke-linecap="round" stroke-linejoin="round" d="M 664 896 L 664 976 L 872 865 L 808 816 Z"/>
    <path id="Bottom-Right-Segment" fill="#9d62d9" fill-rule="evenodd" stroke="#ffffff" stroke-width="16" stroke-linecap="round" stroke-linejoin="round" d="M 360 896 L 360 976 L 152 864 L 216 816 Z"/>
    <path id="Left-Segment" fill="#bc85f2" fill-rule="evenodd" stroke="#ffffff" stroke-width="16" stroke-linecap="round" stroke-linejoin="round" d="M 160 432 L 160 592 L 96 640 L 96 384 Z"/>
</svg>
